# xmcd
# 
# Track frame offsets:
#     150
#     103616
#     208621
#     307781
# 
# Disc length: 4625
# 
# Revision: 1
# Processed by: cddbd v1.5.2PL0 Copyright (c) Steve Scherf et al.
# Submitted via: BonkEnc v1.0.8
# 
DISCID=29120f04
DTITLE=Hape Kerkeling - Ich bin dann mal weg CD 4
DYEAR=2006
DGENRE=Hörbuch
TTITLE0=30. Juni 2001 - León, Teil 2
TTITLE1=01. Juli 2001 - León
TTITLE2=02. Juli 2001 - Irgendwo im Nirgendwo hinter León
TTITLE3=03. Juli 2001 - Astorga
EXTD=
EXTT0=
EXTT1=
EXTT2=
EXTT3=
PLAYORDER=
